<?xml version="1.0" standalone="no"?>
<!DOCTYPE svg PUBLIC "-//W3C//DTD SVG 20010904//EN"
 "http://www.w3.org/TR/2001/REC-SVG-20010904/DTD/svg10.dtd">
<svg version="1.0" xmlns="http://www.w3.org/2000/svg"
 width="144.000000pt" height="144.000000pt" viewBox="0 0 144.000000 144.000000"
 preserveAspectRatio="xMidYMid meet">
<metadata>
Created by potrace 1.14, written by Peter Selinger 2001-2017
</metadata>
<g transform="translate(0.000000,144.000000) scale(0.100000,-0.100000)"
fill="#000000" stroke="none">
<path d="M372 1013 l-32 -26 -19 22 c-15 17 -28 22 -58 19 -44 -4 -46 -20 -3
-31 33 -8 41 -27 11 -27 -23 0 -51 -36 -51 -64 0 -17 4 -15 31 12 35 36 64 45
31 10 -11 -13 -21 -26 -21 -30 -1 -5 -1 -9 -2 -10 0 -2 -2 -24 -4 -50 -2 -51
9 -63 24 -25 5 12 15 37 23 55 7 17 16 32 20 32 5 0 8 8 8 17 0 53 36 -71 46
-157 5 -51 5 -54 -10 -35 -15 19 -15 18 -9 -15 3 -19 7 -37 9 -39 2 -2 -4 -10
-12 -18 -11 -11 -12 -19 -4 -28 19 -23 101 -45 165 -45 67 0 198 30 242 55
l28 16 -35 -7 c-39 -8 -38 -8 -95 1 -27 5 -46 2 -59 -7 -16 -12 -25 -12 -68 2
-30 10 -55 25 -62 38 -7 13 -16 19 -21 15 -4 -4 5 16 20 45 38 70 55 84 56 46
1 -16 1 -35 0 -42 -1 -6 2 -20 8 -29 7 -14 11 -8 18 28 6 27 6 49 0 57 -6 8
-6 12 1 12 6 0 14 -9 17 -20 3 -11 11 -20 16 -20 11 0 3 37 -13 57 -7 8 -1 13
19 15 l28 4 -26 13 c-20 10 -31 10 -48 2 -16 -9 -21 -9 -21 0 0 12 22 35 113
117 26 23 47 47 47 53 0 13 -43 -18 -100 -73 -76 -73 -70 -71 -136 -43 -49 20
-59 33 -20 26 5 -1 28 -3 52 -5 39 -4 42 -3 32 14 -12 19 -47 29 -107 31 l-36
1 40 13 c23 7 51 9 66 5 15 -5 33 -4 40 1 12 7 11 9 -1 9 -9 0 -21 5 -28 12
-23 23 -75 19 -110 -9z m30 -127 c0 -6 1 -18 2 -26 1 -8 6 -15 13 -15 22 0 24
-13 7 -49 l-18 -36 -17 68 c-10 37 -18 70 -18 74 -1 12 29 -3 31 -16z m89 -23
c12 -16 12 -17 -2 -6 -9 7 -18 10 -21 7 -3 -3 -9 -1 -13 5 -11 18 22 12 36 -6z
m-33 -104 c-40 -63 -48 -68 -38 -22 8 32 41 72 62 73 4 0 -7 -23 -24 -51z"/>
<path d="M690 1031 c0 -17 456 -174 490 -169 14 2 -11 14 -71 35 -52 17 -164
57 -249 87 -165 60 -170 61 -170 47z"/>
<path d="M655 970 c3 -5 10 -10 16 -10 5 0 9 5 9 10 0 6 -7 10 -16 10 -8 0
-12 -4 -9 -10z"/>
<path d="M690 971 c0 -6 5 -13 10 -16 6 -3 10 1 10 9 0 9 -4 16 -10 16 -5 0
-10 -4 -10 -9z"/>
<path d="M666 941 c-4 -7 -5 -15 -2 -18 9 -9 19 4 14 18 -4 11 -6 11 -12 0z"/>
<path d="M690 930 c0 -5 5 -10 10 -10 6 0 10 5 10 10 0 6 -4 10 -10 10 -5 0
-10 -4 -10 -10z"/>
<path d="M900 649 c-19 -5 -44 -10 -55 -13 -11 -2 -69 -18 -130 -36 -191 -54
-305 -51 -372 13 -28 25 -29 18 -3 -32 13 -27 33 -46 63 -60 79 -38 154 -26
379 61 73 28 149 57 168 64 30 11 31 13 10 13 -14 -1 -41 -5 -60 -10z"/>
<path d="M937 610 c-34 -9 -127 -42 -207 -72 -80 -31 -154 -59 -165 -62 -11
-3 1 -3 27 -1 26 2 117 22 203 45 243 64 316 63 390 -2 l35 -30 -10 27 c-19
50 -49 82 -91 99 -48 19 -96 18 -182 -4z"/>
</g>
</svg>
